<?xml version="1.0" encoding="utf-8"?>
<!-- Generator: Adobe Illustrator 23.0.1, SVG Export Plug-In . SVG Version: 6.00 Build 0)  -->
<svg version="1.1" id="Layer_1" xmlns:figma="http://www.figma.com/figma/ns"
	 xmlns="http://www.w3.org/2000/svg" xmlns:xlink="http://www.w3.org/1999/xlink" x="0px" y="0px" viewBox="0 0 109 16.8"
	 style="enable-background:new 0 0 109 16.8;" xml:space="preserve">
<style type="text/css">
	.st0{clip-path:url(#SVGID_2_);}
	.st1{clip-path:url(#SVGID_4_);}
	.st2{clip-path:url(#SVGID_4_);fill:#FFFFFF;}
	.st3{clip-path:url(#SVGID_4_);fill:#991B1E;}
</style>
<title>Logo</title>
<g id="Vector_Smart_Object_1_">
	<g>
		<defs>
			<rect id="SVGID_1_" y="0" width="109" height="16.8"/>
		</defs>
		<clipPath id="SVGID_2_">
			<use xlink:href="#SVGID_1_"  style="overflow:visible;"/>
		</clipPath>
		<g class="st0">
			<defs>
				<rect id="SVGID_3_" y="0" width="109" height="16.8"/>
			</defs>
			<clipPath id="SVGID_4_">
				<use xlink:href="#SVGID_3_"  style="overflow:visible;"/>
			</clipPath>
			<path class="st1" d="M109,13.5c0,0.3-0.2,0.5-0.5,0.5c-0.3,0-0.5-0.2-0.5-0.5c0-0.3,0.2-0.5,0.5-0.5
				C108.8,12.9,109,13.2,109,13.5 M108.1,13.5c0,0.2,0.2,0.4,0.4,0.4c0.2,0,0.4-0.2,0.4-0.4c0-0.2-0.2-0.4-0.4-0.4
				S108.1,13.2,108.1,13.5 M108.4,13.7h-0.1v-0.5c0,0,0.1,0,0.2,0c0.1,0,0.1,0,0.2,0c0,0,0.1,0.1,0.1,0.1c0,0.1,0,0.1-0.1,0.1v0
				c0.1,0,0.1,0.1,0.1,0.1c0,0.1,0,0.1,0,0.1h-0.1c0,0,0-0.1,0-0.1c0-0.1,0-0.1-0.1-0.1h-0.1V13.7z M108.4,13.4L108.4,13.4
				c0.1,0,0.2,0,0.2-0.1c0,0,0-0.1-0.1-0.1c0,0-0.1,0-0.1,0V13.4z"/>
			<path class="st1" d="M0.1,12.2h6.8c0.8,0,1.1,0,1.6-0.1c0.8-0.2,1.4-0.9,1.6-1.8c0.1-0.4,0.1-1.2,0.1-1.9c0-0.4,0-0.9-0.1-1.3
				c-0.1-0.9-0.3-1.4-0.7-1.8C8.9,4.9,8.2,4.7,6.5,4.7H0v7.6H0.1z M2.4,10.5V6.6h3.9c1.3,0,1.6,0.3,1.6,1.9c0,1.3-0.1,1.7-0.7,1.9
				c-0.3,0.1-0.3,0.1-0.9,0.1L2.4,10.5L2.4,10.5z"/>
			<path class="st1" d="M12,12.2h2.3v-1.9h3.5c0.6,0,0.8,0,1,0.1c0.2,0.1,0.3,0.4,0.3,0.8v0.9h2.3V11c0-0.6-0.1-1-0.3-1.3
				c-0.3-0.3-0.5-0.4-1.3-0.4h-0.4c1-0.1,1.4-0.3,1.6-0.5c0.3-0.4,0.5-0.9,0.5-1.7c0-1.2-0.3-1.9-0.9-2.2c-0.4-0.2-0.9-0.3-2-0.3
				h-6.5v7.5H12z M14.4,8.5v-2H18c0.7,0,0.9,0.1,1.1,0.2c0.1,0.2,0.2,0.4,0.2,0.8c0,0.8-0.2,0.9-1.3,0.9L14.4,8.5L14.4,8.5z"/>
			<path class="st1" d="M22.8,12.2h2.6l0.8-1.3H31l0.8,1.3h2.5l-4.2-7.6h-3L22.8,12.2z M26.9,9.3l1.6-3l1.6,3H26.9z"/>
			<path class="st1" d="M45,7.2c0-1.6-0.4-2.2-1.5-2.5c-0.5-0.1-1.1-0.1-3.2-0.1c-1.4,0-2.3,0.1-2.9,0.1c-0.9,0.1-1.5,0.4-1.8,1
				c-0.3,0.5-0.4,1.2-0.4,2.8c0,1.4,0.1,2,0.3,2.5c0.3,0.6,0.8,0.9,1.6,1.1c0.5,0.1,1.1,0.1,2.9,0.1c2.2,0,2.9,0,3.1-0.1
				c0.9-0.1,1.5-0.4,1.8-1.1C45,10.7,45,10.2,45,9V7.9h-5.2v1.4h2.9v0.1v0.3c-0.1,0.4-0.3,0.6-0.7,0.7c-0.3,0.1-0.3,0.1-1.4,0.1
				c-2,0-2,0-2.3-0.1c-0.6-0.2-0.8-0.6-0.8-1.8c0-0.5,0-1.2,0.1-1.4c0.1-0.5,0.3-0.8,0.8-0.8c0.2,0,1.1-0.1,2.1-0.1h0.8h0.6
				c0.7,0,0.9,0.3,0.9,0.8H45V7.2z"/>
			<path class="st1" d="M51.6,4.6c-2,0-2.7,0.1-3.3,0.3c-0.9,0.3-1.3,0.7-1.5,1.5c-0.1,0.5-0.2,0.8-0.2,2.1c0,1.6,0.1,2.2,0.4,2.8
				c0.3,0.6,0.8,0.9,1.6,1c0.4,0.1,1.4,0.1,3.1,0.1c0.8,0,1.8,0,2.1-0.1c1.1-0.1,1.8-0.3,2.2-0.6c0.6-0.5,0.8-1.3,0.8-3.1
				c0-0.9,0-1.5-0.1-1.8c-0.2-1.2-0.8-1.8-1.9-2C54.5,4.6,53.8,4.6,51.6,4.6 M51.8,6.4c2.8,0,2.9,0,2.9,2c0,1-0.1,1.4-0.3,1.6
				c-0.3,0.4-0.7,0.4-2.6,0.4c-1.8,0-2.1-0.1-2.4-0.3C49.2,9.9,49,9.5,49,8.4c0-1.1,0.1-1.5,0.4-1.7C49.7,6.5,50.1,6.4,51.8,6.4"/>
			<path class="st1" d="M101.6,7.4c0-0.6,0.1-0.8,0.4-0.9c0.3-0.1,0.6-0.1,2.3-0.1c2.2,0,2.4,0.1,2.4,2c0,1.2-0.1,1.5-0.3,1.8
				c-0.3,0.3-0.6,0.3-2.5,0.3c-2,0-2.1-0.1-2.2-0.9h-2.2v0.3c0,1.1,0.3,1.8,0.9,2.1c0.6,0.3,1.3,0.4,4.1,0.4c2.1,0,2.8-0.1,3.5-0.5
				c0.8-0.4,1-1.2,1-3.2c0-2.3-0.2-3-0.9-3.5c-0.6-0.4-1.3-0.5-3.5-0.5c-1.5,0-2.4,0-2.9,0.1c-1.2,0.1-1.8,0.4-2.1,1
				c-0.2,0.3-0.2,0.7-0.2,1.8H101.6z"/>
			<polygon class="st1" points="97.7,4.6 95.3,4.6 95.3,7.5 90.1,7.5 90.1,4.6 87.8,4.6 87.8,12.2 90.1,12.2 90.1,9.4 95.3,9.4 
				95.3,12.2 97.7,12.2 			"/>
			<path class="st1" d="M86.5,4.6h-2.6l-0.8,1.3h-4.8l-0.8-1.3h-2.5l4.2,7.6h3.1L86.5,4.6z M82.4,7.6l-1.6,3l-1.6-3H82.4z"/>
			<rect x="71.7" y="4.6" class="st1" width="2.3" height="7.6"/>
			<polygon class="st1" points="59,3.8 59,12.2 61.2,12.2 61.2,6.5 			"/>
			<polygon class="st2" points="69.4,4.6 67.2,4.6 67.3,10.4 69.4,13 			"/>
			<polygon class="st1" points="69.4,4.6 67.2,4.6 67.3,10.4 69.4,13 			"/>
			<polygon class="st3" points="59,3.8 59,0 69.4,13 69.4,16.8 			"/>
		</g>
	</g>
</g>
</svg>
